<svg xmlns="http://www.w3.org/2000/svg" xmlns:xlink="http://www.w3.org/1999/xlink" width="22" height="22" viewBox="0 0 22 22">
  <defs>
    <clipPath id="clip-path">
      <rect id="矩形_6" data-name="矩形 6" width="12" height="15.172" fill="#ccc"/>
    </clipPath>
  </defs>
  <g id="密码" transform="translate(26.88 -14.568)">
    <g id="组_2" data-name="组 2" transform="translate(-21.88 17.568)" clip-path="url(#clip-path)">
      <path id="路径_3" data-name="路径 3" d="M-10.97,25.2l-8.486-.014c0-1.132-.311-2.885.666-3.95a3.862,3.862,0,0,1,2.664-1.316A3.729,3.729,0,0,1-12.8,22.553c.167.42.313.646.666.658.885.026.831-.9.666-1.317A4.718,4.718,0,0,0-16.127,18.6a3.878,3.878,0,0,0-3.329,1.317c-1.4,1.53-1.335,4-1.332,5.266l-.5.014a.826.826,0,0,0-.837.816v6.91a.827.827,0,0,0,.837.818h10.312a.827.827,0,0,0,.837-.818v-6.91a.825.825,0,0,0-.836-.816Zm-.475,6.563a.627.627,0,0,1-.2.466.645.645,0,0,1-.471.193h-8.006a.639.639,0,0,1-.471-.193.633.633,0,0,1-.2-.466V27.146a.663.663,0,0,1,.667-.658h8.006a.664.664,0,0,1,.667.658Zm0,0" transform="translate(22.118 -18.59)" fill="#ccc"/>
    </g>
    <rect id="矩形_89" data-name="矩形 89" width="22" height="22" transform="translate(-26.88 14.568)" fill="none"/>
  </g>
</svg>
