<svg xmlns="http://www.w3.org/2000/svg" xmlns:xlink="http://www.w3.org/1999/xlink" width="22" height="22" viewBox="0 0 22 22">
  <defs>
    <clipPath id="clip-path">
      <rect id="矩形_5" data-name="矩形 5" width="12" height="13.605" fill="#ccc"/>
    </clipPath>
  </defs>
  <g id="用户名" transform="translate(93.941 -53.69)">
    <g id="组_1" data-name="组 1" transform="translate(-88.941 57.69)" clip-path="url(#clip-path)">
      <path id="路径_2" data-name="路径 2" d="M-28.479,44.562a4.51,4.51,0,0,0-4.528-4.528,4.51,4.51,0,0,0-4.528,4.528,4.39,4.39,0,0,0,2.314,3.924,6.091,6.091,0,0,0-3.769,4.528.511.511,0,0,0,.4.6h.1a.49.49,0,0,0,.5-.4,5.109,5.109,0,0,1,4.929-4.125h.1a4.5,4.5,0,0,0,4.479-4.528Zm-8.049,0a3.5,3.5,0,0,1,3.52-3.521,3.5,3.5,0,0,1,3.521,3.521,3.555,3.555,0,0,1-3.471,3.52h-.152a3.509,3.509,0,0,1-3.418-3.52Zm6.842,4.578a.5.5,0,0,0-.7.152.494.494,0,0,0,.152.7,5.132,5.132,0,0,1,2.215,3.22.49.49,0,0,0,.5.4h.1a.523.523,0,0,0,.4-.6,6.12,6.12,0,0,0-2.667-3.874Zm0,0" transform="translate(39 -40.031)" fill="#ccc"/>
    </g>
    <rect id="矩形_88" data-name="矩形 88" width="22" height="22" transform="translate(-93.941 53.69)" fill="none"/>
  </g>
</svg>
